<?xml version="1.0" encoding="UTF-8"?> <svg xmlns="http://www.w3.org/2000/svg" width="149" height="82" viewBox="0 0 149 82" fill="none"><g clip-path="url(#clip0_6049_1340)"><path d="M42.8594 2.39756V5.35912L148.949 8.40916V0.309814L42.8594 2.39756Z" fill="url(#paint0_linear_6049_1340)"></path><path d="M0 1.70068V6.15546L30.394 5.35908V2.39752L0 1.70068Z" fill="url(#paint1_linear_6049_1340)"></path><path d="M40.6813 0V2.44446V5.3037V8.09935H32.5742V5.3037V2.44446V0H40.6813Z" fill="#00587C"></path><path d="M147.778 19.8543C146.97 18.0763 145.885 16.583 144.551 15.4133C143.23 14.2575 141.728 13.3698 140.083 12.7781C136.809 11.5973 133.399 11.6001 130.13 12.7781C128.486 13.3698 126.983 14.2575 125.663 15.4133C124.331 16.5803 123.246 18.0763 122.435 19.8543C121.624 21.6351 121.215 23.7007 121.215 25.9931V54.5136C121.215 56.8613 121.627 58.9408 122.438 60.6967C123.249 62.4498 124.331 63.9292 125.663 65.0934C126.983 66.252 128.486 67.1369 130.13 67.7286C131.766 68.3176 133.441 68.6163 135.107 68.6163C136.773 68.6163 138.445 68.3176 140.083 67.7286C141.728 67.1369 143.23 66.2493 144.551 65.0934C145.882 63.9265 146.967 62.4471 147.775 60.6967C148.586 58.9408 148.999 56.8613 148.999 54.5136V25.9959C148.999 23.7007 148.589 21.6351 147.778 19.8543ZM139.441 54.5164C139.441 56.123 139.037 57.2512 138.204 57.9619C137.327 58.7085 136.316 59.0735 135.11 59.0735C133.903 59.0735 132.892 58.7112 132.015 57.9619C131.182 57.2512 130.778 56.1258 130.778 54.5164V25.9959C130.778 24.3893 131.182 23.2611 132.015 22.5504C132.892 21.8038 133.903 21.4388 135.11 21.4388C136.314 21.4388 137.327 21.801 138.201 22.5476C139.034 23.2583 139.439 24.3865 139.439 25.9931V54.5164H139.441Z" fill="#00587C"></path><path d="M74.7759 12.3467H83.8462V68.1655H74.286V39.5924L68.0306 58.5315H62.8436L56.6657 39.6422V68.1655H47.1055V12.3467H56.0983L65.4731 39.2966L74.7759 12.3467Z" fill="#00587C"></path><path d="M40.6813 12.3467L42.1317 68.1655H31.1211L32.5742 12.3467H40.6813Z" fill="#00587C"></path><path d="M23.5297 16.8237C22.3312 15.4632 20.7812 14.3654 18.9212 13.5579C17.0667 12.7532 14.8136 12.344 12.2201 12.344H0V68.1628H11.4618C16.765 68.1628 20.7092 66.7885 23.1809 64.0731C25.6305 61.3853 26.8705 57.5029 26.8705 52.5393V49.5059C26.8705 46.5443 26.4027 44.122 25.481 42.3052C24.7586 40.8867 23.7262 39.7225 22.3948 38.8321C22.799 38.5417 23.1781 38.2431 23.5269 37.9334C24.2521 37.2946 24.8721 36.5452 25.3731 35.7101C25.8768 34.8723 26.2588 33.8879 26.5051 32.7873C26.7459 31.7144 26.8677 30.3982 26.8677 28.8717V26.9057C26.8677 25.0585 26.6131 23.2528 26.1093 21.5301C25.5945 19.7659 24.7282 18.1842 23.5297 16.8237ZM17.6175 53.9772C17.5289 54.9589 17.2854 55.8078 16.8951 56.4991C16.527 57.1545 15.99 57.6577 15.2593 58.0338C14.5064 58.4209 13.4076 58.6173 11.9932 58.6173H9.56022V43.1348H12.0707C13.3605 43.1348 14.3929 43.2896 15.1403 43.5966C15.8433 43.8869 16.372 44.2906 16.7567 44.8354C17.1525 45.3995 17.421 46.124 17.5511 46.9895C17.695 47.9518 17.7697 49.1049 17.7697 50.4211C17.767 51.6987 17.7171 52.896 17.6175 53.9772ZM16.5962 32.9532C15.8931 33.9764 14.3957 34.4935 12.1426 34.4935H9.55746V21.4388H11.8382C14.1217 21.4388 15.6855 21.9393 16.4854 22.9237C17.3324 23.9662 17.7642 25.6115 17.7642 27.8127C17.767 30.094 17.3739 31.8222 16.5962 32.9532Z" fill="#00587C"></path><path d="M102.74 11.8904C104.623 11.8904 106.402 12.2333 108.024 12.908C109.652 13.5855 111.08 14.5478 112.273 15.7672C113.466 16.9867 114.413 18.4661 115.088 20.1612C115.761 21.8563 116.101 23.7145 116.101 25.6916V29.6321H106.541V26.1479C106.541 24.8261 106.181 23.7173 105.439 22.7577C104.753 21.8728 103.845 21.4415 102.666 21.4415C101.091 21.4415 100.1 21.8673 99.6321 22.7439C99.073 23.7947 98.7879 25.169 98.7879 26.8309V54.4417C98.7879 55.8243 99.0841 56.9884 99.6681 57.8954C100.177 58.6863 101.132 59.0707 102.588 59.0707C103.003 59.0707 103.463 58.9932 103.956 58.8439C104.423 58.7029 104.841 58.4734 105.232 58.1443C105.602 57.8318 105.912 57.3839 106.159 56.8115C106.413 56.2197 106.541 55.4482 106.541 54.5136V50.952H116.101V55.1966C116.101 56.9774 115.758 58.7029 115.082 60.3233C114.407 61.941 113.463 63.3761 112.276 64.5901C111.088 65.8012 109.682 66.7856 108.094 67.5101C106.488 68.2457 104.739 68.6162 102.895 68.6162C101.357 68.6162 99.7733 68.4005 98.1818 67.9802C96.5459 67.5461 95.0541 66.7856 93.7421 65.721C92.4274 64.6537 91.3368 63.2351 90.4981 61.5068C89.6567 59.7758 89.2305 57.5747 89.2305 54.9671V25.2354C89.2305 23.3578 89.5598 21.5853 90.2075 19.9676C90.858 18.3444 91.7935 16.9148 92.9892 15.7202C94.1822 14.5284 95.6242 13.5827 97.2711 12.9052C98.918 12.2333 100.756 11.8904 102.74 11.8904Z" fill="#00587C"></path><path d="M6.79626 82.0001V75.7313L4.68438 82.0001H3.97303L1.87775 75.7313V82.0001H0.00390625V72.6868H2.50606L4.32178 78.1592L6.16795 72.6868H8.65627V82.0001H6.79626Z" fill="#0092BC"></path><path d="M10.3047 82.0001V72.6868H15.6577V74.3348H12.1758V76.4419H15.5581V78.0762H12.1758V80.352H15.655V82.0001H10.3047Z" fill="#0092BC"></path><path d="M23.8353 82.0001V75.7313L21.7234 82.0001H21.0121L18.9168 75.7313V82.0001H17.043V72.6868H19.5451L21.3608 78.1592L23.207 72.6868H25.6953V82.0001H23.8353Z" fill="#0092BC"></path><path d="M27.3438 82.0001V72.6868H31.216C32.8933 72.6868 33.6905 73.7901 33.6905 75.0593C33.6905 76.218 33.0345 76.9867 32.182 77.1969C33.1314 77.3517 33.8455 78.3278 33.8455 79.4726C33.8455 80.8967 33.0483 82.0001 31.3433 82.0001H27.3438ZM31.7723 75.3829C31.7723 74.769 31.4374 74.3348 30.7648 74.3348H29.2121V76.4419H30.7648C31.4374 76.4419 31.7723 76.0244 31.7723 75.3829ZM31.9273 79.221C31.9273 78.5795 31.5509 78.0762 30.8368 78.0762H29.2148V80.352H30.8368C31.5343 80.352 31.9273 79.9483 31.9273 79.221Z" fill="#0092BC"></path><path d="M35.1562 82.0001V72.6868H40.5093V74.3348H37.0301V76.4419H40.4124V78.0762H37.0301V80.352H40.5093V82.0001H35.1562Z" fill="#0092BC"></path><path d="M46.229 82.0001L44.7897 78.6348H43.7684V82.0001H41.8945V72.6868H45.3737C47.0926 72.6868 48.2385 73.9145 48.2385 75.6317C48.2385 77.2383 47.3721 78.0485 46.5888 78.3002L48.3077 82.0001H46.229ZM46.3259 75.6622C46.3259 74.8519 45.836 74.3348 45.1108 74.3348H43.7684V76.9867H45.1108C45.8387 76.9867 46.3259 76.4724 46.3259 75.6622Z" fill="#0092BC"></path></g><defs><linearGradient id="paint0_linear_6049_1340" x1="36.6089" y1="4.35899" x2="148.949" y2="4.35899" gradientUnits="userSpaceOnUse"><stop stop-color="#0092BC"></stop><stop offset="0.5" stop-color="#0092BC"></stop><stop offset="1" stop-color="#0092BC" stop-opacity="0"></stop></linearGradient><linearGradient id="paint1_linear_6049_1340" x1="0" y1="3.92769" x2="36.552" y2="3.92769" gradientUnits="userSpaceOnUse"><stop stop-color="#0092BC" stop-opacity="0"></stop><stop offset="0.5" stop-color="#0092BC"></stop><stop offset="1" stop-color="#0092BC"></stop></linearGradient><clipPath id="clip0_6049_1340"><rect width="149" height="82" fill="white"></rect></clipPath></defs></svg> 