<svg width="154" height="32" viewBox="0 0 154 32" fill="none" xmlns="http://www.w3.org/2000/svg">
<path d="M15.9607 3.24863V7.78237H15.516C15.2525 6.73644 14.9601 5.987 14.6389 5.53403C14.3177 5.07284 13.8771 4.70635 13.3171 4.43457C13.0041 4.28633 12.4565 4.21221 11.6741 4.21221H10.4264V17.134C10.4264 17.9905 10.4717 18.5258 10.5623 18.7399C10.6611 18.9541 10.8464 19.1435 11.1182 19.3082C11.3982 19.4647 11.777 19.5429 12.2547 19.5429H12.8106V20H4.0396V19.5429H4.59551C5.08141 19.5429 5.47261 19.4564 5.76909 19.2835C5.98322 19.1682 6.15205 18.9705 6.27559 18.6905C6.36618 18.4929 6.41147 17.974 6.41147 17.134V4.21221H5.20083C4.07254 4.21221 3.25309 4.45104 2.74248 4.92871C2.02598 5.5958 1.57301 6.54702 1.38359 7.78237H0.91416V3.24863H15.9607ZM21.9218 14.2666V17.792C21.9218 18.4723 21.962 18.9022 22.0424 19.0815C22.129 19.2547 22.2774 19.3939 22.4877 19.499C22.698 19.6042 23.0907 19.6567 23.6659 19.6567V20H17.2274V19.6567C17.8088 19.6567 18.2016 19.6042 18.4057 19.499C18.616 19.3877 18.7613 19.2454 18.8417 19.0723C18.9283 18.8991 18.9716 18.4723 18.9716 17.792V9.62793C18.9716 8.94759 18.9283 8.52083 18.8417 8.34766C18.7613 8.16829 18.616 8.02604 18.4057 7.9209C18.1954 7.81576 17.8026 7.76318 17.2274 7.76318V7.41992H23.0722C24.5937 7.41992 25.7069 7.52507 26.412 7.73535C27.1171 7.94564 27.6923 8.33529 28.1376 8.9043C28.5829 9.46712 28.8056 10.1289 28.8056 10.8896C28.8056 11.8174 28.4716 12.5843 27.8036 13.1904C27.3769 13.5739 26.78 13.8615 26.0131 14.0532L29.0375 18.3115C29.4333 18.862 29.7147 19.2052 29.8817 19.3413C30.1353 19.533 30.4291 19.6382 30.7631 19.6567V20H26.8017L22.7475 14.2666H21.9218ZM21.9218 8.09717V13.6079H22.4506C23.3103 13.6079 23.9535 13.5306 24.3803 13.376C24.807 13.2152 25.141 12.9307 25.3822 12.5225C25.6296 12.1081 25.7533 11.57 25.7533 10.9082C25.7533 9.94954 25.5276 9.24137 25.0761 8.78369C24.6308 8.32601 23.9102 8.09717 22.9145 8.09717H21.9218ZM38.5097 16.4189H34.0658L33.537 17.6436C33.3638 18.0518 33.2772 18.3888 33.2772 18.6548C33.2772 19.0073 33.4195 19.2671 33.704 19.4341C33.871 19.533 34.2823 19.6073 34.9379 19.6567V20H30.7538V19.6567C31.2053 19.5887 31.5764 19.4032 31.8671 19.1001C32.1578 18.7909 32.5165 18.1569 32.9433 17.1982L37.4428 7.16016H37.619L42.1557 17.4766C42.5886 18.4538 42.9442 19.0692 43.2226 19.3228C43.4328 19.5145 43.7297 19.6258 44.1132 19.6567V20H38.0272V19.6567H38.2777C38.7663 19.6567 39.1096 19.5887 39.3075 19.4526C39.4436 19.3537 39.5116 19.2114 39.5116 19.0259C39.5116 18.9146 39.4931 18.8001 39.456 18.6826C39.4436 18.627 39.3508 18.395 39.1776 17.9868L38.5097 16.4189ZM38.1942 15.7324L36.3202 11.3999L34.3905 15.7324H38.1942ZM49.0673 7.41992L55.2738 15.2222V9.81348C55.2738 9.05892 55.1656 8.54867 54.9491 8.28271C54.6522 7.92399 54.1544 7.75081 53.4555 7.76318V7.41992H57.6117V7.76318C57.0798 7.83122 56.7211 7.9209 56.5355 8.03223C56.3562 8.13737 56.2139 8.31364 56.1088 8.56104C56.0098 8.80225 55.9604 9.21973 55.9604 9.81348V20.2876H55.6449L47.1376 9.81348V17.8105C47.1376 18.5342 47.3015 19.0228 47.6293 19.2764C47.9633 19.5299 48.3437 19.6567 48.7704 19.6567H49.0673V20H44.6049V19.6567C45.2976 19.6506 45.78 19.5083 46.0521 19.23C46.3243 18.9517 46.4604 18.4785 46.4604 17.8105V8.93213L46.1913 8.59814C45.9254 8.26416 45.6903 8.0446 45.4862 7.93945C45.2821 7.83431 44.9883 7.77555 44.6049 7.76318V7.41992H49.0673ZM66.9911 7.13232L67.0932 11.3257H66.7128C66.5334 10.2743 66.0912 9.43001 65.3861 8.79297C64.6872 8.14974 63.9296 7.82812 63.1132 7.82812C62.4823 7.82812 61.9813 7.99821 61.6103 8.33838C61.2453 8.67236 61.0629 9.05892 61.0629 9.49805C61.0629 9.77637 61.1278 10.0238 61.2577 10.2402C61.4371 10.5309 61.7247 10.8185 62.1205 11.103C62.4112 11.3071 63.0823 11.6689 64.1337 12.1885C65.6057 12.9121 66.5984 13.5955 67.1117 14.2388C67.6189 14.882 67.8725 15.618 67.8725 16.4468C67.8725 17.4982 67.4612 18.4043 66.6386 19.165C65.8222 19.9196 64.7831 20.2969 63.5214 20.2969C63.1256 20.2969 62.7514 20.2567 62.3988 20.1763C62.0463 20.0959 61.6041 19.9443 61.0722 19.7217C60.7753 19.598 60.531 19.5361 60.3393 19.5361C60.1784 19.5361 60.0084 19.598 59.829 19.7217C59.6496 19.8454 59.5043 20.034 59.393 20.2876H59.0497V15.5376H59.393C59.6651 16.8735 60.1877 17.894 60.9608 18.5991C61.7401 19.298 62.5782 19.6475 63.475 19.6475C64.1677 19.6475 64.7182 19.4588 65.1264 19.0815C65.5408 18.7043 65.7479 18.2651 65.7479 17.7642C65.7479 17.4673 65.6675 17.1797 65.5067 16.9014C65.3521 16.623 65.114 16.3602 64.7924 16.1128C64.4708 15.8592 63.9018 15.5314 63.0854 15.1294C61.9411 14.5666 61.1186 14.0872 60.6176 13.6914C60.1166 13.2956 59.73 12.8534 59.4579 12.3647C59.192 11.8761 59.059 11.3381 59.059 10.7505C59.059 9.74854 59.427 8.89502 60.163 8.18994C60.899 7.48486 61.8267 7.13232 62.9462 7.13232C63.3544 7.13232 63.7502 7.1818 64.1337 7.28076C64.4244 7.35498 64.7769 7.49414 65.1913 7.69824C65.6119 7.89616 65.9057 7.99512 66.0727 7.99512C66.2335 7.99512 66.3603 7.94564 66.453 7.84668C66.5458 7.74772 66.6324 7.5096 66.7128 7.13232H66.9911ZM80.6995 14.2927L85.2456 3.24863H92.0647V3.70571H91.5212C91.027 3.70571 90.6317 3.79219 90.3353 3.96514C90.1294 4.08044 89.9646 4.27398 89.8411 4.54575C89.7505 4.74341 89.7052 5.25814 89.7052 6.08994V17.134C89.7052 17.9905 89.7505 18.5258 89.8411 18.7399C89.9317 18.9541 90.117 19.1435 90.397 19.3082C90.677 19.4647 91.0518 19.5429 91.5212 19.5429H92.0647V20H83.3185V19.5429H83.862C84.3562 19.5429 84.7515 19.4564 85.0479 19.2835C85.2538 19.1682 85.4186 18.9705 85.5421 18.6905C85.6327 18.4929 85.678 17.974 85.678 17.134V4.7187L79.2541 20H78.9577L72.435 4.82988V16.6275C72.435 17.4511 72.4556 17.9576 72.4968 18.147C72.6038 18.5588 72.8344 18.8964 73.1886 19.16C73.5509 19.4153 74.1151 19.5429 74.881 19.5429V20H69.149V19.5429H69.3219C69.6925 19.5512 70.0384 19.4935 70.3596 19.37C70.6808 19.2382 70.9238 19.0653 71.0885 18.8511C71.2532 18.637 71.3808 18.3364 71.4714 17.9493C71.4879 17.8587 71.4961 17.4387 71.4961 16.6893V6.08994C71.4961 5.24167 71.4508 4.71458 71.3603 4.50869C71.2697 4.29456 71.0844 4.10926 70.8043 3.95278C70.5243 3.78807 70.1496 3.70571 69.6802 3.70571H69.149V3.24863H75.9928L80.6995 14.2927ZM100.438 16.4189H95.9946L95.4658 17.6436C95.2926 18.0518 95.2061 18.3888 95.2061 18.6548C95.2061 19.0073 95.3483 19.2671 95.6328 19.4341C95.7998 19.533 96.2111 19.6073 96.8667 19.6567V20H92.6826V19.6567C93.1341 19.5887 93.5052 19.4032 93.7959 19.1001C94.0866 18.7909 94.4453 18.1569 94.8721 17.1982L99.3716 7.16016H99.5479L104.084 17.4766C104.517 18.4538 104.873 19.0692 105.151 19.3228C105.362 19.5145 105.659 19.6258 106.042 19.6567V20H99.9561V19.6567H100.207C100.695 19.6567 101.038 19.5887 101.236 19.4526C101.372 19.3537 101.44 19.2114 101.44 19.0259C101.44 18.9146 101.422 18.8001 101.385 18.6826C101.372 18.627 101.28 18.395 101.106 17.9868L100.438 16.4189ZM100.123 15.7324L98.249 11.3999L96.3193 15.7324H100.123ZM111.312 14.2666V17.792C111.312 18.4723 111.352 18.9022 111.432 19.0815C111.519 19.2547 111.667 19.3939 111.877 19.499C112.088 19.6042 112.48 19.6567 113.056 19.6567V20H106.617V19.6567C107.199 19.6567 107.591 19.6042 107.795 19.499C108.006 19.3877 108.151 19.2454 108.231 19.0723C108.318 18.8991 108.361 18.4723 108.361 17.792V9.62793C108.361 8.94759 108.318 8.52083 108.231 8.34766C108.151 8.16829 108.006 8.02604 107.795 7.9209C107.585 7.81576 107.192 7.76318 106.617 7.76318V7.41992H112.462C113.983 7.41992 115.097 7.52507 115.802 7.73535C116.507 7.94564 117.082 8.33529 117.527 8.9043C117.973 9.46712 118.195 10.1289 118.195 10.8896C118.195 11.8174 117.861 12.5843 117.193 13.1904C116.767 13.5739 116.17 13.8615 115.403 14.0532L118.427 18.3115C118.823 18.862 119.104 19.2052 119.271 19.3413C119.525 19.533 119.819 19.6382 120.153 19.6567V20H116.191L112.137 14.2666H111.312ZM111.312 8.09717V13.6079H111.84C112.7 13.6079 113.343 13.5306 113.77 13.376C114.197 13.2152 114.531 12.9307 114.772 12.5225C115.019 12.1081 115.143 11.57 115.143 10.9082C115.143 9.94954 114.917 9.24137 114.466 8.78369C114.021 8.32601 113.3 8.09717 112.304 8.09717H111.312ZM126.953 19.6567V20H120.375V19.6567H120.793C121.158 19.6567 121.452 19.5918 121.674 19.4619C121.835 19.3753 121.959 19.2269 122.045 19.0166C122.113 18.8682 122.147 18.4785 122.147 17.8477V9.57227C122.147 8.92904 122.113 8.52702 122.045 8.36621C121.977 8.2054 121.838 8.06624 121.628 7.94873C121.424 7.82503 121.146 7.76318 120.793 7.76318H120.375V7.41992H126.953V7.76318H126.536C126.171 7.76318 125.877 7.82812 125.654 7.95801C125.493 8.0446 125.367 8.19303 125.274 8.40332C125.206 8.55176 125.172 8.94141 125.172 9.57227V17.8477C125.172 18.4909 125.206 18.8929 125.274 19.0537C125.348 19.2145 125.487 19.3568 125.691 19.4805C125.902 19.598 126.183 19.6567 126.536 19.6567H126.953ZM132.13 7.41992L138.336 15.2222V9.81348C138.336 9.05892 138.228 8.54867 138.012 8.28271C137.715 7.92399 137.217 7.75081 136.518 7.76318V7.41992H140.674V7.76318C140.142 7.83122 139.784 7.9209 139.598 8.03223C139.419 8.13737 139.277 8.31364 139.171 8.56104C139.072 8.80225 139.023 9.21973 139.023 9.81348V20.2876H138.708L130.2 9.81348V17.8105C130.2 18.5342 130.364 19.0228 130.692 19.2764C131.026 19.5299 131.406 19.6567 131.833 19.6567H132.13V20H127.667V19.6567C128.36 19.6506 128.843 19.5083 129.115 19.23C129.387 18.9517 129.523 18.4785 129.523 17.8105V8.93213L129.254 8.59814C128.988 8.26416 128.753 8.0446 128.549 7.93945C128.345 7.83431 128.051 7.77555 127.667 7.76318V7.41992H132.13ZM146.306 8.14355V13.2646H146.556C147.354 13.2646 147.932 13.0142 148.291 12.5132C148.65 12.0122 148.879 11.2731 148.978 10.2959H149.33V16.8828H148.978C148.903 16.1654 148.746 15.5778 148.504 15.1201C148.269 14.6624 147.994 14.3563 147.679 14.2017C147.363 14.0409 146.906 13.9604 146.306 13.9604V17.5044C146.306 18.1971 146.333 18.6208 146.389 18.7754C146.451 18.93 146.562 19.0568 146.723 19.1558C146.884 19.2547 147.144 19.3042 147.502 19.3042H148.254C149.429 19.3042 150.369 19.0321 151.074 18.4878C151.785 17.9435 152.296 17.1147 152.605 16.0015H152.948L152.382 20H141.509V19.6567H141.927C142.292 19.6567 142.585 19.5918 142.808 19.4619C142.969 19.3753 143.093 19.2269 143.179 19.0166C143.247 18.8682 143.281 18.4785 143.281 17.8477V9.57227C143.281 9.00326 143.266 8.65381 143.235 8.52393C143.173 8.30745 143.059 8.14046 142.892 8.02295C142.657 7.84977 142.335 7.76318 141.927 7.76318H141.509V7.41992H152.039V11.1401H151.687C151.507 10.231 151.254 9.57845 150.926 9.18262C150.604 8.78678 150.146 8.49609 149.553 8.31055C149.206 8.19922 148.557 8.14355 147.604 8.14355H146.306Z" fill="white"/>
<path d="M4.10376 29.4893L3.94189 31H0.120605V30.8826H0.263428C0.388265 30.8826 0.48877 30.8604 0.564941 30.8159C0.619954 30.7863 0.662272 30.7355 0.691895 30.6636C0.715169 30.6128 0.726807 30.4795 0.726807 30.2637V27.4326C0.726807 27.2126 0.715169 27.075 0.691895 27.02C0.66862 26.965 0.621012 26.9174 0.549072 26.8772C0.479248 26.8349 0.384033 26.8137 0.263428 26.8137H0.120605V26.6963H2.41528V26.8137H2.22803C2.10319 26.8137 2.00269 26.8359 1.92651 26.8804C1.8715 26.91 1.82812 26.9608 1.79639 27.0327C1.77311 27.0835 1.76147 27.2168 1.76147 27.4326V30.1748C1.76147 30.3949 1.77417 30.5356 1.79956 30.5969C1.82495 30.6562 1.87467 30.7006 1.94873 30.7302C2.00163 30.7493 2.12964 30.7588 2.33276 30.7588H2.69141C2.91992 30.7588 3.11035 30.7186 3.2627 30.6382C3.41504 30.5578 3.54622 30.4308 3.65625 30.2573C3.76839 30.0838 3.87419 29.8278 3.97363 29.4893H4.10376ZM6.49609 30.8934V31H4.45356V30.8934H4.5832C4.69652 30.8934 4.78774 30.8732 4.85688 30.8329C4.90682 30.806 4.94523 30.7599 4.97212 30.6946C4.99325 30.6485 5.00381 30.5275 5.00381 30.3316V27.7619C5.00381 27.5622 4.99325 27.4373 4.97212 27.3874C4.95099 27.3375 4.90778 27.2943 4.84248 27.2578C4.7791 27.2194 4.69268 27.2001 4.5832 27.2001H4.45356V27.0936H6.49609V27.2001H6.36646C6.25314 27.2001 6.16191 27.2203 6.09277 27.2606C6.04284 27.2875 6.00347 27.3336 5.97466 27.3989C5.95353 27.445 5.94297 27.566 5.94297 27.7619V30.3316C5.94297 30.5314 5.95353 30.6562 5.97466 30.7062C5.99771 30.7561 6.04092 30.8003 6.1043 30.8387C6.1696 30.8752 6.25698 30.8934 6.36646 30.8934H6.49609ZM8.10361 27.0936L10.0309 29.5164V27.8368C10.0309 27.6025 9.9973 27.4441 9.93008 27.3615C9.83789 27.2501 9.68328 27.1963 9.46626 27.2001V27.0936H10.7569V27.2001C10.5917 27.2213 10.4803 27.2491 10.4227 27.2837C10.367 27.3163 10.3228 27.3711 10.2902 27.4479C10.2595 27.5228 10.2441 27.6524 10.2441 27.8368V31.0893H10.1461L7.50439 27.8368V30.3201C7.50439 30.5448 7.55529 30.6965 7.65708 30.7753C7.76079 30.854 7.87891 30.8934 8.01143 30.8934H8.10361V31H6.71792V30.8934C6.93302 30.8915 7.08283 30.8473 7.16733 30.7609C7.25184 30.6745 7.29409 30.5275 7.29409 30.3201V27.5631L7.21055 27.4594C7.12796 27.3557 7.05498 27.2875 6.9916 27.2549C6.92822 27.2222 6.837 27.204 6.71792 27.2001V27.0936H8.10361ZM12.5056 27.3183V28.9085H12.5833C12.8311 28.9085 13.0107 28.8307 13.1221 28.6751C13.2335 28.5196 13.3045 28.2901 13.3353 27.9866H13.4447V30.032H13.3353C13.3122 29.8092 13.2632 29.6268 13.1883 29.4847C13.1153 29.3425 13.0299 29.2475 12.9319 29.1995C12.834 29.1495 12.6919 29.1246 12.5056 29.1246V30.225C12.5056 30.4402 12.5142 30.5717 12.5315 30.6197C12.5507 30.6677 12.5853 30.7071 12.6352 30.7378C12.6851 30.7686 12.7658 30.7839 12.8772 30.7839H13.1105C13.4755 30.7839 13.7674 30.6994 13.9863 30.5304C14.2072 30.3614 14.3656 30.1041 14.4617 29.7583H14.5683L14.3925 31H11.0162V30.8934H11.1458C11.2591 30.8934 11.3503 30.8732 11.4195 30.8329C11.4694 30.806 11.5078 30.7599 11.5347 30.6946C11.5558 30.6485 11.5664 30.5275 11.5664 30.3316V27.7619C11.5664 27.5852 11.5616 27.4767 11.552 27.4364C11.5328 27.3692 11.4973 27.3173 11.4454 27.2808C11.3724 27.227 11.2726 27.2001 11.1458 27.2001H11.0162V27.0936H14.2859V28.2488H14.1765C14.1208 27.9665 14.042 27.7638 13.9402 27.6409C13.8404 27.518 13.6982 27.4277 13.5139 27.3701C13.4063 27.3355 13.2047 27.3183 12.9089 27.3183H12.5056ZM16.4005 29.2196V30.3144C16.4005 30.5256 16.413 30.6591 16.4379 30.7148C16.4648 30.7686 16.5109 30.8118 16.5762 30.8444C16.6415 30.8771 16.7635 30.8934 16.9421 30.8934V31H14.9428V30.8934C15.1233 30.8934 15.2453 30.8771 15.3086 30.8444C15.3739 30.8099 15.4191 30.7657 15.444 30.7119C15.4709 30.6581 15.4844 30.5256 15.4844 30.3144V27.7792C15.4844 27.5679 15.4709 27.4354 15.444 27.3816C15.4191 27.3259 15.3739 27.2818 15.3086 27.2491C15.2433 27.2165 15.1214 27.2001 14.9428 27.2001V27.0936H16.7577C17.2302 27.0936 17.5759 27.1262 17.7948 27.1915C18.0138 27.2568 18.1924 27.3778 18.3307 27.5545C18.4689 27.7293 18.5381 27.9348 18.5381 28.171C18.5381 28.4591 18.4344 28.6972 18.227 28.8854C18.0944 29.0045 17.9091 29.0938 17.6709 29.1534L18.6101 30.4757C18.733 30.6466 18.8204 30.7532 18.8723 30.7955C18.951 30.855 19.0422 30.8876 19.1459 30.8934V31H17.9158L16.6569 29.2196H16.4005ZM16.4005 27.3039V29.0151H16.5647C16.8317 29.0151 17.0314 28.9911 17.1639 28.9431C17.2964 28.8931 17.4001 28.8048 17.475 28.678C17.5519 28.5493 17.5903 28.3823 17.5903 28.1768C17.5903 27.8791 17.5202 27.6592 17.38 27.517C17.2417 27.3749 17.018 27.3039 16.7087 27.3039H16.4005ZM24.4227 28.426H25.743V28.5498C25.5949 28.571 25.4785 28.6154 25.3938 28.6831C25.3092 28.7487 25.1992 28.9032 25.0638 29.1465C24.9284 29.3898 24.7379 29.6617 24.4925 29.9622C24.7083 30.1568 24.8839 30.2922 25.0193 30.3684C25.1146 30.4213 25.2077 30.4478 25.2986 30.4478C25.4552 30.4478 25.597 30.3451 25.7239 30.1399L25.8541 30.2097C25.6806 30.5504 25.4954 30.7926 25.2986 30.9365C25.1484 31.0444 24.977 31.0984 24.7845 31.0984C24.6194 31.0984 24.4618 31.0635 24.3116 30.9937C24.1635 30.9217 23.9826 30.7884 23.7688 30.5938C23.5044 30.7715 23.2557 30.9006 23.023 30.981C22.7903 31.0592 22.548 31.0984 22.2962 31.0984C21.8942 31.0984 21.5747 30.9894 21.3377 30.7715C21.1007 30.5535 20.9822 30.2975 20.9822 30.0034C20.9822 29.686 21.0954 29.4099 21.3218 29.175C21.5482 28.9402 21.8772 28.7371 22.3089 28.5657C22.2539 28.4281 22.2126 28.2938 22.1851 28.1626C22.1576 28.0314 22.1438 27.9045 22.1438 27.7817C22.1438 27.4432 22.2623 27.1618 22.4993 26.9375C22.7384 26.7111 23.0431 26.5979 23.4134 26.5979C23.7117 26.5979 23.9476 26.673 24.1211 26.8232C24.2968 26.9714 24.3846 27.1449 24.3846 27.3438C24.3846 27.5828 24.2946 27.7881 24.1148 27.9595C23.9371 28.1287 23.6546 28.2843 23.2674 28.426C23.5065 28.8471 23.8567 29.3009 24.3179 29.7876C24.629 29.4385 24.7845 29.1391 24.7845 28.8894C24.7845 28.8005 24.7538 28.7254 24.6924 28.6641C24.6311 28.6006 24.5411 28.5625 24.4227 28.5498V28.426ZM23.1595 28.2356C23.3816 28.1531 23.5308 28.0653 23.607 27.9722C23.6832 27.877 23.7212 27.7627 23.7212 27.6294C23.7212 27.3924 23.6588 27.1925 23.534 27.0295C23.4515 26.9216 23.3499 26.8677 23.2293 26.8677C23.1299 26.8677 23.0442 26.9068 22.9722 26.9851C22.9024 27.0634 22.8675 27.1692 22.8675 27.3025C22.8675 27.4062 22.8844 27.5173 22.9183 27.6357C22.9521 27.7542 23.0325 27.9542 23.1595 28.2356ZM22.3978 28.7688C22.2285 28.8407 22.1089 28.9169 22.0391 28.9973C21.9397 29.1158 21.8899 29.248 21.8899 29.394C21.8899 29.5929 21.9471 29.7908 22.0613 29.9875C22.1777 30.1843 22.3174 30.3367 22.4803 30.4446C22.6432 30.5525 22.8061 30.6064 22.969 30.6064C23.0494 30.6064 23.1394 30.5895 23.2388 30.5557C23.3404 30.5197 23.4504 30.4668 23.5689 30.397C23.059 29.8743 22.6686 29.3316 22.3978 28.7688ZM31.8621 26.6963V27.8611H31.7479C31.6801 27.5924 31.605 27.3998 31.5225 27.2834C31.44 27.165 31.3268 27.0708 31.1829 27.001C31.1025 26.9629 30.9618 26.9438 30.7608 26.9438H30.4402V30.2637C30.4402 30.4837 30.4519 30.6213 30.4751 30.6763C30.5005 30.7313 30.5481 30.7799 30.618 30.8223C30.6899 30.8625 30.7872 30.8826 30.91 30.8826H31.0528V31H28.7994V30.8826H28.9422C29.067 30.8826 29.1675 30.8604 29.2437 30.8159C29.2987 30.7863 29.3421 30.7355 29.3738 30.6636C29.3971 30.6128 29.4087 30.4795 29.4087 30.2637V26.9438H29.0977C28.8078 26.9438 28.5973 27.0052 28.4661 27.1279C28.282 27.2993 28.1657 27.5437 28.117 27.8611H27.9964V26.6963H31.8621ZM33.6642 29.2196V30.3144C33.6642 30.5256 33.6766 30.6591 33.7016 30.7148C33.7285 30.7686 33.7746 30.8118 33.8399 30.8444C33.9052 30.8771 34.0271 30.8934 34.2058 30.8934V31H32.2064V30.8934C32.387 30.8934 32.5089 30.8771 32.5723 30.8444C32.6376 30.8099 32.6827 30.7657 32.7077 30.7119C32.7346 30.6581 32.748 30.5256 32.748 30.3144V27.7792C32.748 27.5679 32.7346 27.4354 32.7077 27.3816C32.6827 27.3259 32.6376 27.2818 32.5723 27.2491C32.507 27.2165 32.3851 27.2001 32.2064 27.2001V27.0936H34.0214C34.4938 27.0936 34.8396 27.1262 35.0585 27.1915C35.2774 27.2568 35.4561 27.3778 35.5943 27.5545C35.7326 27.7293 35.8018 27.9348 35.8018 28.171C35.8018 28.4591 35.698 28.6972 35.4906 28.8854C35.3581 29.0045 35.1728 29.0938 34.9346 29.1534L35.8738 30.4757C35.9967 30.6466 36.0841 30.7532 36.1359 30.7955C36.2147 30.855 36.3059 30.8876 36.4096 30.8934V31H35.1795L33.9206 29.2196H33.6642ZM33.6642 27.3039V29.0151H33.8284C34.0953 29.0151 34.2951 28.9911 34.4276 28.9431C34.5601 28.8931 34.6638 28.8048 34.7387 28.678C34.8155 28.5493 34.854 28.3823 34.854 28.1768C34.854 27.8791 34.7839 27.6592 34.6437 27.517C34.5054 27.3749 34.2816 27.3039 33.9724 27.3039H33.6642ZM38.8151 29.888H37.4352L37.271 30.2683C37.2172 30.395 37.1903 30.4997 37.1903 30.5823C37.1903 30.6917 37.2345 30.7724 37.3229 30.8243C37.3747 30.855 37.5024 30.878 37.706 30.8934V31H36.4067V30.8934C36.5469 30.8723 36.6622 30.8147 36.7524 30.7206C36.8427 30.6245 36.9541 30.4277 37.0866 30.13L38.4838 27.0129H38.5386L39.9473 30.2164C40.0818 30.5199 40.1922 30.711 40.2786 30.7897C40.3439 30.8492 40.4361 30.8838 40.5552 30.8934V31H38.6653V30.8934H38.7431C38.8948 30.8934 39.0014 30.8723 39.0629 30.83C39.1051 30.7993 39.1263 30.7551 39.1263 30.6975C39.1263 30.6629 39.1205 30.6274 39.109 30.5909C39.1051 30.5736 39.0763 30.5016 39.0226 30.3749L38.8151 29.888ZM38.7172 29.6748L38.1353 28.3294L37.536 29.6748H38.7172ZM43.436 29.669L44.4962 27.0936H46.0864V27.2001H45.9597C45.8444 27.2001 45.7522 27.2203 45.6831 27.2606C45.6351 27.2875 45.5967 27.3327 45.5679 27.396C45.5467 27.4421 45.5362 27.5622 45.5362 27.7562V30.3316C45.5362 30.5314 45.5467 30.6562 45.5679 30.7062C45.589 30.7561 45.6322 30.8003 45.6975 30.8387C45.7628 30.8752 45.8502 30.8934 45.9597 30.8934H46.0864V31H44.0468V30.8934H44.1735C44.2888 30.8934 44.381 30.8732 44.4501 30.8329C44.4981 30.806 44.5365 30.7599 44.5653 30.6946C44.5865 30.6485 44.597 30.5275 44.597 30.3316V27.4364L43.099 31H43.0298L41.5087 27.4623V30.2135C41.5087 30.4056 41.5135 30.5237 41.5231 30.5679C41.5481 30.6639 41.6019 30.7426 41.6845 30.8041C41.769 30.8636 41.9005 30.8934 42.0792 30.8934V31H40.7424V30.8934H40.7828C40.8692 30.8953 40.9499 30.8819 41.0248 30.8531C41.0997 30.8223 41.1563 30.782 41.1947 30.7321C41.2331 30.6821 41.2629 30.612 41.284 30.5218C41.2879 30.5007 41.2898 30.4027 41.2898 30.2279V27.7562C41.2898 27.5583 41.2792 27.4354 41.2581 27.3874C41.237 27.3375 41.1938 27.2943 41.1285 27.2578C41.0632 27.2194 40.9758 27.2001 40.8663 27.2001H40.7424V27.0936H42.3384L43.436 29.669ZM47.789 29.2312V30.3144C47.789 30.5256 47.8015 30.6591 47.8265 30.7148C47.8534 30.7686 47.8994 30.8118 47.9647 30.8444C48.032 30.8771 48.1539 30.8934 48.3306 30.8934V31H46.3457V30.8934C46.5262 30.8934 46.6482 30.8771 46.7116 30.8444C46.7769 30.8099 46.822 30.7657 46.847 30.7119C46.8739 30.6581 46.8873 30.5256 46.8873 30.3144V27.7792C46.8873 27.5679 46.8739 27.4354 46.847 27.3816C46.822 27.3259 46.7769 27.2818 46.7116 27.2491C46.6463 27.2165 46.5243 27.2001 46.3457 27.2001V27.0936H48.0483C48.6091 27.0936 49.0115 27.1934 49.2554 27.3932C49.4993 27.5929 49.6212 27.8426 49.6212 28.1422C49.6212 28.3957 49.5425 28.6127 49.385 28.7933C49.2275 28.9738 49.0105 29.0967 48.7339 29.162C48.5476 29.2081 48.2327 29.2312 47.789 29.2312ZM47.789 27.3183V29.0064C47.8524 29.0103 47.9004 29.0122 47.9331 29.0122C48.1674 29.0122 48.3479 28.9431 48.4747 28.8048C48.6014 28.6646 48.6648 28.4485 48.6648 28.1566C48.6648 27.8666 48.6014 27.6544 48.4747 27.5199C48.3479 27.3855 48.1587 27.3183 47.9071 27.3183H47.789ZM54.1318 29.7749H52.6116L52.4307 30.1938C52.3714 30.3335 52.3418 30.4488 52.3418 30.5398C52.3418 30.6604 52.3905 30.7493 52.4878 30.8064C52.5449 30.8403 52.6856 30.8656 52.9099 30.8826V31H51.4785V30.8826C51.633 30.8593 51.7599 30.7958 51.8594 30.6921C51.9588 30.5863 52.0815 30.3695 52.2275 30.0415L53.7668 26.6074H53.8271L55.3792 30.1367C55.5273 30.471 55.6489 30.6816 55.7441 30.7683C55.8161 30.8339 55.9176 30.872 56.0488 30.8826V31H53.9668V30.8826H54.0525C54.2196 30.8826 54.3371 30.8593 54.4048 30.8127C54.4513 30.7789 54.4746 30.7302 54.4746 30.6667C54.4746 30.6287 54.4683 30.5895 54.4556 30.5493C54.4513 30.5303 54.4196 30.4509 54.3604 30.3113L54.1318 29.7749ZM54.0239 29.54L53.3828 28.0579L52.7227 29.54H54.0239ZM60.1957 27.0042V28.3813H60.0891C59.9604 28.0049 59.7674 27.7187 59.51 27.5228C59.2527 27.3269 58.9713 27.229 58.6659 27.229C58.374 27.229 58.131 27.3115 57.9371 27.4767C57.7431 27.64 57.6058 27.8685 57.5251 28.1624C57.4444 28.4562 57.4041 28.7577 57.4041 29.0669C57.4041 29.4415 57.4483 29.7699 57.5366 30.0522C57.625 30.3345 57.7671 30.5419 57.963 30.6745C58.1608 30.807 58.3951 30.8732 58.6659 30.8732C58.76 30.8732 58.8561 30.8636 58.954 30.8444C59.0539 30.8233 59.1557 30.7935 59.2594 30.7551V29.9427C59.2594 29.7891 59.2488 29.6902 59.2277 29.646C59.2066 29.5999 59.1624 29.5586 59.0952 29.5221C59.0299 29.4856 58.9502 29.4674 58.8561 29.4674H58.7552V29.3608H60.6537V29.4674C60.5097 29.477 60.4088 29.4972 60.3512 29.5279C60.2955 29.5567 60.2523 29.6057 60.2216 29.6748C60.2043 29.7113 60.1957 29.8006 60.1957 29.9427V30.7551C59.946 30.8665 59.6857 30.9501 59.4149 31.0058C59.1461 31.0634 58.8666 31.0922 58.5766 31.0922C58.2059 31.0922 57.8977 31.0423 57.6519 30.9424C57.4079 30.8406 57.1919 30.7081 57.0037 30.5448C56.8174 30.3797 56.6714 30.1943 56.5658 29.9888C56.4313 29.7238 56.3641 29.4271 56.3641 29.0986C56.3641 28.5109 56.5706 28.0145 56.9835 27.6092C57.3964 27.204 57.9159 27.0014 58.542 27.0014C58.736 27.0014 58.9108 27.0167 59.0664 27.0475C59.1509 27.0628 59.2872 27.107 59.4754 27.18C59.6656 27.251 59.7779 27.2866 59.8125 27.2866C59.8663 27.2866 59.9162 27.2674 59.9623 27.229C60.0084 27.1886 60.0507 27.1137 60.0891 27.0042H60.1957ZM62.3246 27.3183V28.9085H62.4024C62.6501 28.9085 62.8297 28.8307 62.9411 28.6751C63.0525 28.5196 63.1236 28.2901 63.1543 27.9866H63.2638V30.032H63.1543C63.1313 29.8092 63.0823 29.6268 63.0074 29.4847C62.9344 29.3425 62.8489 29.2475 62.751 29.1995C62.653 29.1495 62.5109 29.1246 62.3246 29.1246V30.225C62.3246 30.4402 62.3333 30.5717 62.3505 30.6197C62.3697 30.6677 62.4043 30.7071 62.4542 30.7378C62.5042 30.7686 62.5848 30.7839 62.6962 30.7839H62.9296C63.2945 30.7839 63.5864 30.6994 63.8054 30.5304C64.0262 30.3614 64.1847 30.1041 64.2807 29.7583H64.3873L64.2116 31H60.8352V30.8934H60.9648C61.0782 30.8934 61.1694 30.8732 61.2385 30.8329C61.2885 30.806 61.3269 30.7599 61.3538 30.6946C61.3749 30.6485 61.3854 30.5275 61.3854 30.3316V27.7619C61.3854 27.5852 61.3806 27.4767 61.371 27.4364C61.3518 27.3692 61.3163 27.3173 61.2645 27.2808C61.1915 27.227 61.0916 27.2001 60.9648 27.2001H60.8352V27.0936H64.105V28.2488H63.9955C63.9398 27.9665 63.8611 27.7638 63.7593 27.6409C63.6594 27.518 63.5173 27.4277 63.3329 27.3701C63.2254 27.3355 63.0237 27.3183 62.7279 27.3183H62.3246ZM66.1216 27.0936L68.0489 29.5164V27.8368C68.0489 27.6025 68.0153 27.4441 67.948 27.3615C67.8559 27.2501 67.7013 27.1963 67.4842 27.2001V27.0936H68.7749V27.2001C68.6097 27.2213 68.4983 27.2491 68.4407 27.2837C68.385 27.3163 68.3408 27.3711 68.3082 27.4479C68.2774 27.5228 68.2621 27.6524 68.2621 27.8368V31.0893H68.1641L65.5224 27.8368V30.3201C65.5224 30.5448 65.5733 30.6965 65.675 30.7753C65.7788 30.854 65.8969 30.8934 66.0294 30.8934H66.1216V31H64.7359V30.8934C64.951 30.8915 65.1008 30.8473 65.1853 30.7609C65.2698 30.6745 65.3121 30.5275 65.3121 30.3201V27.5631L65.2285 27.4594C65.1459 27.3557 65.0729 27.2875 65.0096 27.2549C64.9462 27.2222 64.855 27.204 64.7359 27.2001V27.0936H66.1216ZM72.6381 27.0936V28.1508H72.5344C72.4729 27.9069 72.4047 27.7321 72.3298 27.6265C72.2549 27.519 72.1522 27.4335 72.0216 27.3701C71.9486 27.3355 71.8209 27.3183 71.6384 27.3183H71.3475V30.3316C71.3475 30.5314 71.358 30.6562 71.3792 30.7062C71.4022 30.7561 71.4454 30.8003 71.5088 30.8387C71.5741 30.8752 71.6624 30.8934 71.7738 30.8934H71.9035V31H69.8581V30.8934H69.9877C70.101 30.8934 70.1922 30.8732 70.2614 30.8329C70.3113 30.806 70.3507 30.7599 70.3795 30.6946C70.4006 30.6485 70.4112 30.5275 70.4112 30.3316V27.3183H70.1289C69.8657 27.3183 69.6746 27.374 69.5556 27.4854C69.3885 27.6409 69.2828 27.8627 69.2387 28.1508H69.1292V27.0936H72.6381ZM75.6227 27.0042L75.6543 28.3064H75.5362C75.4805 27.9799 75.3432 27.7177 75.1243 27.5199C74.9072 27.3202 74.672 27.2203 74.4185 27.2203C74.2226 27.2203 74.067 27.2731 73.9518 27.3788C73.8384 27.4825 73.7818 27.6025 73.7818 27.7389C73.7818 27.8253 73.802 27.9021 73.8423 27.9693C73.898 28.0596 73.9873 28.1489 74.1102 28.2373C74.2005 28.3006 74.4089 28.413 74.7354 28.5743C75.1925 28.799 75.5007 29.0112 75.6601 29.211C75.8176 29.4107 75.8963 29.6393 75.8963 29.8966C75.8963 30.2231 75.7686 30.5045 75.5132 30.7407C75.2597 30.975 74.937 31.0922 74.5452 31.0922C74.4223 31.0922 74.3061 31.0797 74.1966 31.0547C74.0872 31.0298 73.9498 30.9827 73.7847 30.9136C73.6925 30.8752 73.6166 30.856 73.5571 30.856C73.5071 30.856 73.4543 30.8752 73.3986 30.9136C73.3429 30.952 73.2978 31.0106 73.2632 31.0893H73.1566V29.6143H73.2632C73.3477 30.0292 73.51 30.346 73.7501 30.565C73.9921 30.782 74.2523 30.8905 74.5308 30.8905C74.7459 30.8905 74.9168 30.8319 75.0436 30.7148C75.1723 30.5976 75.2366 30.4613 75.2366 30.3057C75.2366 30.2135 75.2117 30.1242 75.1617 30.0378C75.1137 29.9514 75.0398 29.8697 74.9399 29.7929C74.84 29.7142 74.6633 29.6124 74.4098 29.4875C74.0545 29.3128 73.7991 29.1639 73.6435 29.041C73.4879 28.9181 73.3679 28.7808 73.2834 28.6291C73.2008 28.4773 73.1595 28.3102 73.1595 28.1278C73.1595 27.8167 73.2738 27.5516 73.5023 27.3327C73.7309 27.1137 74.019 27.0042 74.3666 27.0042C74.4934 27.0042 74.6163 27.0196 74.7354 27.0503C74.8256 27.0734 74.9351 27.1166 75.0638 27.18C75.1944 27.2414 75.2856 27.2722 75.3375 27.2722C75.3874 27.2722 75.4268 27.2568 75.4556 27.2261C75.4844 27.1953 75.5113 27.1214 75.5362 27.0042H75.6227ZM79.7695 29.8352H77.9191V29.1782H79.7695V29.8352ZM83.3369 26.9438V28.7117H83.4606C83.6511 28.7117 83.8066 28.6831 83.9272 28.626C84.0478 28.5688 84.1494 28.4726 84.2319 28.3372C84.3165 28.2017 84.3715 28.0187 84.3969 27.7881H84.508V29.9495H84.3969C84.3567 29.5411 84.2467 29.2724 84.0668 29.1433C83.8891 29.0121 83.687 28.9465 83.4606 28.9465H83.3369V30.2637C83.3369 30.4837 83.3485 30.6213 83.3718 30.6763C83.3972 30.7313 83.4448 30.7799 83.5146 30.8223C83.5865 30.8625 83.6828 30.8826 83.8034 30.8826H83.9462V31H81.696V30.8826H81.8388C81.9637 30.8826 82.0642 30.8604 82.1403 30.8159C82.1953 30.7863 82.2377 30.7355 82.2673 30.6636C82.2906 30.6128 82.3022 30.4795 82.3022 30.2637V27.4326C82.3022 27.2126 82.2906 27.075 82.2673 27.02C82.244 26.965 82.1964 26.9174 82.1245 26.8772C82.0546 26.8349 81.9594 26.8137 81.8388 26.8137H81.696V26.6963H85.3269V27.9309H85.1967C85.1671 27.641 85.0909 27.4263 84.9682 27.2866C84.8476 27.147 84.672 27.0486 84.4414 26.9915C84.3144 26.9597 84.0795 26.9438 83.7368 26.9438H83.3369ZM87.0908 29.2196V30.3144C87.0908 30.5256 87.1033 30.6591 87.1283 30.7148C87.1552 30.7686 87.2013 30.8118 87.2666 30.8444C87.3319 30.8771 87.4538 30.8934 87.6324 30.8934V31H85.6331V30.8934C85.8136 30.8934 85.9356 30.8771 85.999 30.8444C86.0643 30.8099 86.1094 30.7657 86.1344 30.7119C86.1613 30.6581 86.1747 30.5256 86.1747 30.3144V27.7792C86.1747 27.5679 86.1613 27.4354 86.1344 27.3816C86.1094 27.3259 86.0643 27.2818 85.999 27.2491C85.9337 27.2165 85.8117 27.2001 85.6331 27.2001V27.0936H87.448C87.9205 27.0936 88.2662 27.1262 88.4852 27.1915C88.7041 27.2568 88.8827 27.3778 89.021 27.5545C89.1593 27.7293 89.2284 27.9348 89.2284 28.171C89.2284 28.4591 89.1247 28.6972 88.9173 28.8854C88.7848 29.0045 88.5994 29.0938 88.3613 29.1534L89.3004 30.4757C89.4234 30.6466 89.5107 30.7532 89.5626 30.7955C89.6413 30.855 89.7326 30.8876 89.8363 30.8934V31H88.6062L87.3472 29.2196H87.0908ZM87.0908 27.3039V29.0151H87.255C87.522 29.0151 87.7217 28.9911 87.8543 28.9431C87.9868 28.8931 88.0905 28.8048 88.1654 28.678C88.2422 28.5493 88.2806 28.3823 88.2806 28.1768C88.2806 27.8791 88.2105 27.6592 88.0703 27.517C87.932 27.3749 87.7083 27.3039 87.3991 27.3039H87.0908ZM91.3948 27.3183V28.9085H91.4726C91.7204 28.9085 91.8999 28.8307 92.0113 28.6751C92.1227 28.5196 92.1938 28.2901 92.2245 27.9866H92.334V30.032H92.2245C92.2015 29.8092 92.1525 29.6268 92.0776 29.4847C92.0046 29.3425 91.9191 29.2475 91.8212 29.1995C91.7232 29.1495 91.5811 29.1246 91.3948 29.1246V30.225C91.3948 30.4402 91.4035 30.5717 91.4208 30.6197C91.44 30.6677 91.4745 30.7071 91.5245 30.7378C91.5744 30.7686 91.6551 30.7839 91.7665 30.7839H91.9998C92.3647 30.7839 92.6566 30.6994 92.8756 30.5304C93.0965 30.3614 93.2549 30.1041 93.3509 29.7583H93.4575L93.2818 31H89.9054V30.8934H90.0351C90.1484 30.8934 90.2396 30.8732 90.3087 30.8329C90.3587 30.806 90.3971 30.7599 90.424 30.6946C90.4451 30.6485 90.4557 30.5275 90.4557 30.3316V27.7619C90.4557 27.5852 90.4509 27.4767 90.4413 27.4364C90.4221 27.3692 90.3865 27.3173 90.3347 27.2808C90.2617 27.227 90.1618 27.2001 90.0351 27.2001H89.9054V27.0936H93.1752V28.2488H93.0657C93.01 27.9665 92.9313 27.7638 92.8295 27.6409C92.7296 27.518 92.5875 27.4277 92.4031 27.3701C92.2956 27.3355 92.0939 27.3183 91.7981 27.3183H91.3948ZM95.8832 30.8934V31H93.8407V30.8934H93.9703C94.0836 30.8934 94.1749 30.8732 94.244 30.8329C94.2939 30.806 94.3323 30.7599 94.3592 30.6946C94.3804 30.6485 94.3909 30.5275 94.3909 30.3316V27.7619C94.3909 27.5622 94.3804 27.4373 94.3592 27.3874C94.3381 27.3375 94.2949 27.2943 94.2296 27.2578C94.1662 27.2194 94.0798 27.2001 93.9703 27.2001H93.8407V27.0936H95.8832V27.2001H95.7536C95.6402 27.2001 95.549 27.2203 95.4799 27.2606C95.4299 27.2875 95.3906 27.3336 95.3618 27.3989C95.3406 27.445 95.3301 27.566 95.3301 27.7619V30.3316C95.3301 30.5314 95.3406 30.6562 95.3618 30.7062C95.3848 30.7561 95.428 30.8003 95.4914 30.8387C95.5567 30.8752 95.6441 30.8934 95.7536 30.8934H95.8832ZM100.092 27.0042V28.3813H99.9855C99.8569 28.0049 99.6639 27.7187 99.4065 27.5228C99.1491 27.3269 98.8678 27.229 98.5624 27.229C98.2705 27.229 98.0275 27.3115 97.8335 27.4767C97.6396 27.64 97.5022 27.8685 97.4216 28.1624C97.3409 28.4562 97.3006 28.7577 97.3006 29.0669C97.3006 29.4415 97.3448 29.7699 97.4331 30.0522C97.5215 30.3345 97.6636 30.5419 97.8595 30.6745C98.0573 30.807 98.2916 30.8732 98.5624 30.8732C98.6565 30.8732 98.7525 30.8636 98.8505 30.8444C98.9504 30.8233 99.0521 30.7935 99.1559 30.7551V29.9427C99.1559 29.7891 99.1453 29.6902 99.1242 29.646C99.103 29.5999 99.0589 29.5586 98.9917 29.5221C98.9264 29.4856 98.8466 29.4674 98.7525 29.4674H98.6517V29.3608H100.55V29.4674C100.406 29.477 100.305 29.4972 100.248 29.5279C100.192 29.5567 100.149 29.6057 100.118 29.6748C100.101 29.7113 100.092 29.8006 100.092 29.9427V30.7551C99.8425 30.8665 99.5822 30.9501 99.3114 31.0058C99.0425 31.0634 98.7631 31.0922 98.4731 31.0922C98.1024 31.0922 97.7942 31.0423 97.5483 30.9424C97.3044 30.8406 97.0884 30.7081 96.9001 30.5448C96.7139 30.3797 96.5679 30.1943 96.4623 29.9888C96.3278 29.7238 96.2606 29.4271 96.2606 29.0986C96.2606 28.5109 96.4671 28.0145 96.88 27.6092C97.2929 27.204 97.8124 27.0014 98.4385 27.0014C98.6325 27.0014 98.8073 27.0167 98.9628 27.0475C99.0473 27.0628 99.1837 27.107 99.3719 27.18C99.5621 27.251 99.6744 27.2866 99.709 27.2866C99.7628 27.2866 99.8127 27.2674 99.8588 27.229C99.9049 27.1886 99.9471 27.1137 99.9855 27.0042H100.092ZM102.227 29.1217V30.3316C102.227 30.5314 102.237 30.6562 102.259 30.7062C102.282 30.7561 102.325 30.8003 102.388 30.8387C102.453 30.8752 102.541 30.8934 102.65 30.8934H102.78V31H100.737V30.8934H100.867C100.98 30.8934 101.072 30.8732 101.141 30.8329C101.191 30.806 101.229 30.7599 101.256 30.6946C101.277 30.6485 101.288 30.5275 101.288 30.3316V27.7619C101.288 27.5622 101.277 27.4373 101.256 27.3874C101.235 27.3375 101.192 27.2943 101.126 27.2578C101.063 27.2194 100.977 27.2001 100.867 27.2001H100.737V27.0936H102.78V27.2001H102.65C102.537 27.2001 102.446 27.2203 102.377 27.2606C102.327 27.2875 102.287 27.3336 102.259 27.3989C102.237 27.445 102.227 27.566 102.227 27.7619V28.8682H103.607V27.7619C103.607 27.5622 103.596 27.4373 103.575 27.3874C103.554 27.3375 103.511 27.2943 103.445 27.2578C103.38 27.2194 103.293 27.2001 103.183 27.2001H103.057V27.0936H105.096V27.2001H104.969C104.854 27.2001 104.763 27.2203 104.696 27.2606C104.646 27.2875 104.606 27.3336 104.578 27.3989C104.557 27.445 104.546 27.566 104.546 27.7619V30.3316C104.546 30.5314 104.557 30.6562 104.578 30.7062C104.599 30.7561 104.642 30.8003 104.707 30.8387C104.773 30.8752 104.86 30.8934 104.969 30.8934H105.096V31H103.057V30.8934H103.183C103.299 30.8934 103.39 30.8732 103.457 30.8329C103.507 30.806 103.546 30.7599 103.575 30.6946C103.596 30.6485 103.607 30.5275 103.607 30.3316V29.1217H102.227ZM108.928 27.0936V28.1508H108.824C108.763 27.9069 108.694 27.7321 108.619 27.6265C108.545 27.519 108.442 27.4335 108.311 27.3701C108.238 27.3355 108.111 27.3183 107.928 27.3183H107.637V30.3316C107.637 30.5314 107.648 30.6562 107.669 30.7062C107.692 30.7561 107.735 30.8003 107.798 30.8387C107.864 30.8752 107.952 30.8934 108.063 30.8934H108.193V31H106.148V30.8934H106.277C106.391 30.8934 106.482 30.8732 106.551 30.8329C106.601 30.806 106.64 30.7599 106.669 30.6946C106.69 30.6485 106.701 30.5275 106.701 30.3316V27.3183H106.419C106.155 27.3183 105.964 27.374 105.845 27.4854C105.678 27.6409 105.572 27.8627 105.528 28.1508H105.419V27.0936H108.928ZM112.553 26.9438V28.7117H112.677C112.867 28.7117 113.023 28.6831 113.143 28.626C113.264 28.5688 113.365 28.4726 113.448 28.3372C113.532 28.2017 113.587 28.0187 113.613 27.7881H113.724V29.9495H113.613C113.573 29.5411 113.463 29.2724 113.283 29.1433C113.105 29.0121 112.903 28.9465 112.677 28.9465H112.553V30.2637C112.553 30.4837 112.564 30.6213 112.588 30.6763C112.613 30.7313 112.661 30.7799 112.731 30.8223C112.802 30.8625 112.899 30.8826 113.019 30.8826H113.162V31H110.912V30.8826H111.055C111.18 30.8826 111.28 30.8604 111.356 30.8159C111.411 30.7863 111.454 30.7355 111.483 30.6636C111.506 30.6128 111.518 30.4795 111.518 30.2637V27.4326C111.518 27.2126 111.506 27.075 111.483 27.02C111.46 26.965 111.412 26.9174 111.34 26.8772C111.271 26.8349 111.175 26.8137 111.055 26.8137H110.912V26.6963H114.543V27.9309H114.413C114.383 27.641 114.307 27.4263 114.184 27.2866C114.064 27.147 113.888 27.0486 113.657 26.9915C113.53 26.9597 113.295 26.9438 112.953 26.9438H112.553ZM117.018 27.0388C117.641 27.0158 118.146 27.1973 118.534 27.5833C118.924 27.9693 119.118 28.4524 119.118 29.0324C119.118 29.5279 118.973 29.9639 118.683 30.3403C118.299 30.8396 117.757 31.0893 117.056 31.0893C116.353 31.0893 115.809 30.8512 115.425 30.3749C115.122 29.9984 114.97 29.5519 114.97 29.0353C114.97 28.4552 115.167 27.9722 115.561 27.5862C115.956 27.1982 116.442 27.0158 117.018 27.0388ZM117.053 27.2232C116.696 27.2232 116.424 27.4056 116.238 27.7706C116.086 28.0702 116.01 28.5004 116.01 29.0612C116.01 29.7276 116.127 30.2202 116.361 30.5391C116.525 30.7618 116.753 30.8732 117.047 30.8732C117.245 30.8732 117.41 30.8252 117.543 30.7292C117.712 30.6063 117.843 30.4104 117.937 30.1415C118.031 29.8707 118.078 29.5183 118.078 29.0842C118.078 28.5676 118.03 28.1816 117.934 27.9261C117.838 27.6688 117.715 27.4873 117.566 27.3816C117.418 27.276 117.247 27.2232 117.053 27.2232ZM120.899 29.2196V30.3144C120.899 30.5256 120.911 30.6591 120.936 30.7148C120.963 30.7686 121.009 30.8118 121.075 30.8444C121.14 30.8771 121.262 30.8934 121.44 30.8934V31H119.441V30.8934C119.622 30.8934 119.744 30.8771 119.807 30.8444C119.872 30.8099 119.917 30.7657 119.942 30.7119C119.969 30.6581 119.983 30.5256 119.983 30.3144V27.7792C119.983 27.5679 119.969 27.4354 119.942 27.3816C119.917 27.3259 119.872 27.2818 119.807 27.2491C119.742 27.2165 119.62 27.2001 119.441 27.2001V27.0936H121.256C121.729 27.0936 122.074 27.1262 122.293 27.1915C122.512 27.2568 122.691 27.3778 122.829 27.5545C122.967 27.7293 123.036 27.9348 123.036 28.171C123.036 28.4591 122.933 28.6972 122.725 28.8854C122.593 29.0045 122.407 29.0938 122.169 29.1534L123.108 30.4757C123.231 30.6466 123.319 30.7532 123.371 30.7955C123.449 30.855 123.541 30.8876 123.644 30.8934V31H122.414L121.155 29.2196H120.899ZM120.899 27.3039V29.0151H121.063C121.33 29.0151 121.53 28.9911 121.662 28.9431C121.795 28.8931 121.898 28.8048 121.973 28.678C122.05 28.5493 122.089 28.3823 122.089 28.1768C122.089 27.8791 122.019 27.6592 121.878 27.517C121.74 27.3749 121.516 27.3039 121.207 27.3039H120.899ZM129.443 27.0936V27.2001C129.37 27.2059 129.309 27.2261 129.259 27.2606C129.209 27.2952 129.165 27.348 129.127 27.4191C129.115 27.4421 129.055 27.591 128.945 27.8656L127.721 31.0893H127.608L126.64 28.5714L125.574 31.0893H125.468L124.183 27.9002C124.052 27.5795 123.961 27.3855 123.909 27.3183C123.857 27.251 123.77 27.2117 123.647 27.2001V27.0936H125.341V27.2001C125.205 27.204 125.114 27.2251 125.067 27.2635C125.023 27.3 125.001 27.3461 125.001 27.4018C125.001 27.4748 125.048 27.6294 125.142 27.8656L125.909 29.7612L126.522 28.2805L126.361 27.8656C126.273 27.639 126.204 27.4882 126.156 27.4133C126.108 27.3365 126.053 27.2818 125.989 27.2491C125.928 27.2165 125.837 27.2001 125.716 27.2001V27.0936H127.608V27.2001C127.476 27.2021 127.381 27.2126 127.323 27.2318C127.283 27.2453 127.251 27.2683 127.228 27.301C127.205 27.3317 127.194 27.3672 127.194 27.4076C127.194 27.4517 127.237 27.5871 127.323 27.8138L128.035 29.6633L128.671 27.9895C128.739 27.8167 128.78 27.6985 128.795 27.6352C128.811 27.5718 128.818 27.5132 128.818 27.4594C128.818 27.3807 128.791 27.3192 128.738 27.275C128.684 27.229 128.581 27.204 128.429 27.2001V27.0936H129.443ZM131.95 29.888H130.57L130.406 30.2683C130.352 30.395 130.325 30.4997 130.325 30.5823C130.325 30.6917 130.369 30.7724 130.458 30.8243C130.509 30.855 130.637 30.878 130.841 30.8934V31H129.541V30.8934C129.682 30.8723 129.797 30.8147 129.887 30.7206C129.977 30.6245 130.089 30.4277 130.221 30.13L131.619 27.0129H131.673L133.082 30.2164C133.216 30.5199 133.327 30.711 133.413 30.7897C133.479 30.8492 133.571 30.8838 133.69 30.8934V31H131.8V30.8934H131.878C132.03 30.8934 132.136 30.8723 132.198 30.83C132.24 30.7993 132.261 30.7551 132.261 30.6975C132.261 30.6629 132.255 30.6274 132.244 30.5909C132.24 30.5736 132.211 30.5016 132.157 30.3749L131.95 29.888ZM131.852 29.6748L131.27 28.3294L130.671 29.6748H131.852ZM135.326 29.2196V30.3144C135.326 30.5256 135.339 30.6591 135.364 30.7148C135.391 30.7686 135.437 30.8118 135.502 30.8444C135.567 30.8771 135.689 30.8934 135.868 30.8934V31H133.868V30.8934C134.049 30.8934 134.171 30.8771 134.234 30.8444C134.3 30.8099 134.345 30.7657 134.37 30.7119C134.397 30.6581 134.41 30.5256 134.41 30.3144V27.7792C134.41 27.5679 134.397 27.4354 134.37 27.3816C134.345 27.3259 134.3 27.2818 134.234 27.2491C134.169 27.2165 134.047 27.2001 133.868 27.2001V27.0936H135.683C136.156 27.0936 136.502 27.1262 136.721 27.1915C136.939 27.2568 137.118 27.3778 137.256 27.5545C137.395 27.7293 137.464 27.9348 137.464 28.171C137.464 28.4591 137.36 28.6972 137.153 28.8854C137.02 29.0045 136.835 29.0938 136.597 29.1534L137.536 30.4757C137.659 30.6466 137.746 30.7532 137.798 30.7955C137.877 30.855 137.968 30.8876 138.072 30.8934V31H136.842L135.583 29.2196H135.326ZM135.326 27.3039V29.0151H135.49C135.757 29.0151 135.957 28.9911 136.09 28.9431C136.222 28.8931 136.326 28.8048 136.401 28.678C136.478 28.5493 136.516 28.3823 136.516 28.1768C136.516 27.8791 136.446 27.6592 136.306 27.517C136.167 27.3749 135.944 27.3039 135.634 27.3039H135.326ZM138.1 31V30.8934H138.23C138.343 30.8934 138.43 30.8761 138.489 30.8416C138.551 30.8051 138.596 30.7561 138.625 30.6946C138.642 30.6543 138.651 30.5333 138.651 30.3316V27.7619C138.651 27.5622 138.64 27.4373 138.619 27.3874C138.598 27.3375 138.555 27.2943 138.489 27.2578C138.426 27.2194 138.34 27.2001 138.23 27.2001H138.1V27.0936H139.849C140.316 27.0936 140.691 27.1569 140.976 27.2837C141.323 27.4393 141.586 27.6745 141.765 27.9895C141.945 28.3045 142.036 28.6607 142.036 29.0583C142.036 29.3329 141.992 29.5865 141.903 29.8188C141.815 30.0493 141.701 30.2404 141.56 30.3921C141.42 30.5419 141.258 30.6629 141.073 30.7551C140.891 30.8454 140.667 30.9155 140.402 30.9654C140.285 30.9885 140.101 31 139.849 31H138.1ZM139.59 27.3154V30.3633C139.59 30.5247 139.598 30.6236 139.613 30.6601C139.628 30.6965 139.654 30.7244 139.691 30.7436C139.743 30.7724 139.817 30.7868 139.915 30.7868C140.236 30.7868 140.481 30.6773 140.65 30.4584C140.88 30.1626 140.996 29.7036 140.996 29.0813C140.996 28.5801 140.917 28.1796 140.759 27.88C140.635 27.6457 140.474 27.4863 140.278 27.4018C140.14 27.3423 139.911 27.3135 139.59 27.3154ZM143.894 27.3183V28.9085H143.972C144.219 28.9085 144.399 28.8307 144.51 28.6751C144.622 28.5196 144.693 28.2901 144.724 27.9866H144.833V30.032H144.724C144.7 29.8092 144.652 29.6268 144.577 29.4847C144.504 29.3425 144.418 29.2475 144.32 29.1995C144.222 29.1495 144.08 29.1246 143.894 29.1246V30.225C143.894 30.4402 143.902 30.5717 143.92 30.6197C143.939 30.6677 143.974 30.7071 144.023 30.7378C144.073 30.7686 144.154 30.7839 144.265 30.7839H144.499C144.864 30.7839 145.156 30.6994 145.375 30.5304C145.595 30.3614 145.754 30.1041 145.85 29.7583H145.957L145.781 31H142.404V30.8934H142.534C142.647 30.8934 142.739 30.8732 142.808 30.8329C142.858 30.806 142.896 30.7599 142.923 30.6946C142.944 30.6485 142.955 30.5275 142.955 30.3316V27.7619C142.955 27.5852 142.95 27.4767 142.94 27.4364C142.921 27.3692 142.886 27.3173 142.834 27.2808C142.761 27.227 142.661 27.2001 142.534 27.2001H142.404V27.0936H145.674V28.2488H145.565C145.509 27.9665 145.43 27.7638 145.329 27.6409C145.229 27.518 145.087 27.4277 144.902 27.3701C144.795 27.3355 144.593 27.3183 144.297 27.3183H143.894ZM147.789 29.2196V30.3144C147.789 30.5256 147.801 30.6591 147.826 30.7148C147.853 30.7686 147.899 30.8118 147.965 30.8444C148.03 30.8771 148.152 30.8934 148.33 30.8934V31H146.331V30.8934C146.512 30.8934 146.634 30.8771 146.697 30.8444C146.762 30.8099 146.807 30.7657 146.832 30.7119C146.859 30.6581 146.873 30.5256 146.873 30.3144V27.7792C146.873 27.5679 146.859 27.4354 146.832 27.3816C146.807 27.3259 146.762 27.2818 146.697 27.2491C146.632 27.2165 146.51 27.2001 146.331 27.2001V27.0936H148.146C148.618 27.0936 148.964 27.1262 149.183 27.1915C149.402 27.2568 149.581 27.3778 149.719 27.5545C149.857 27.7293 149.926 27.9348 149.926 28.171C149.926 28.4591 149.823 28.6972 149.615 28.8854C149.483 29.0045 149.297 29.0938 149.059 29.1534L149.998 30.4757C150.121 30.6466 150.209 30.7532 150.261 30.7955C150.339 30.855 150.431 30.8876 150.534 30.8934V31H149.304L148.045 29.2196H147.789ZM147.789 27.3039V29.0151H147.953C148.22 29.0151 148.42 28.9911 148.552 28.9431C148.685 28.8931 148.788 28.8048 148.863 28.678C148.94 28.5493 148.979 28.3823 148.979 28.1768C148.979 27.8791 148.908 27.6592 148.768 27.517C148.63 27.3749 148.406 27.3039 148.097 27.3039H147.789ZM153.257 27.0042L153.288 28.3064H153.17C153.115 27.9799 152.977 27.7177 152.758 27.5199C152.541 27.3202 152.306 27.2203 152.052 27.2203C151.857 27.2203 151.701 27.2731 151.586 27.3788C151.472 27.4825 151.416 27.6025 151.416 27.7389C151.416 27.8253 151.436 27.9021 151.476 27.9693C151.532 28.0596 151.621 28.1489 151.744 28.2373C151.834 28.3006 152.043 28.413 152.369 28.5743C152.826 28.799 153.135 29.0112 153.294 29.211C153.452 29.4107 153.53 29.6393 153.53 29.8966C153.53 30.2231 153.403 30.5045 153.147 30.7407C152.894 30.975 152.571 31.0922 152.179 31.0922C152.056 31.0922 151.94 31.0797 151.831 31.0547C151.721 31.0298 151.584 30.9827 151.419 30.9136C151.326 30.8752 151.251 30.856 151.191 30.856C151.141 30.856 151.088 30.8752 151.033 30.9136C150.977 30.952 150.932 31.0106 150.897 31.0893H150.791V29.6143H150.897C150.982 30.0292 151.144 30.346 151.384 30.565C151.626 30.782 151.886 30.8905 152.165 30.8905C152.38 30.8905 152.551 30.8319 152.678 30.7148C152.806 30.5976 152.871 30.4613 152.871 30.3057C152.871 30.2135 152.846 30.1242 152.796 30.0378C152.748 29.9514 152.674 29.8697 152.574 29.7929C152.474 29.7142 152.297 29.6124 152.044 29.4875C151.688 29.3128 151.433 29.1639 151.277 29.041C151.122 28.9181 151.002 28.7808 150.917 28.6291C150.835 28.4773 150.794 28.3102 150.794 28.1278C150.794 27.8167 150.908 27.5516 151.136 27.3327C151.365 27.1137 151.653 27.0042 152.001 27.0042C152.127 27.0042 152.25 27.0196 152.369 27.0503C152.46 27.0734 152.569 27.1166 152.698 27.18C152.828 27.2414 152.92 27.2722 152.971 27.2722C153.021 27.2722 153.061 27.2568 153.09 27.2261C153.118 27.1953 153.145 27.1214 153.17 27.0042H153.257Z" fill="white"/>
</svg>
